<svg width="900" height="450" viewBox="0 0 900 450" xmlns="http://www.w3.org/2000/svg">
  <defs>
    <style>
      .text { font-family: system-ui, -apple-system, sans-serif; font-size: 13px; font-weight: 500; fill: #1e293b; }
      .title { font-family: system-ui, -apple-system, sans-serif; font-size: 15px; font-weight: 700; fill: #0f172a; }
      .subgraph-box { fill: transparent; stroke: #94a3b8; stroke-width: 1.5; stroke-dasharray: 4 4; rx: 8; }
      .app-node { fill: #ffffff; stroke: #cbd5e1; stroke-width: 2; rx: 8; }
      .router-node { fill: #f8fafc; stroke: #64748b; stroke-width: 2; }
      .vault-node { fill: #f8fafc; stroke: #64748b; stroke-width: 2; }
      .arrow-line { stroke: #64748b; stroke-width: 2; fill: none; }
      .arrow-head { fill: #64748b; }
      .arrow-dashed { stroke: #64748b; stroke-width: 2; fill: none; stroke-dasharray: 4 4; }
      .label-text { font-family: system-ui, -apple-system, sans-serif; font-size: 12px; fill: #334155; font-weight: 700; }
      .label-bg { fill: #ffffff; }

      @media (prefers-color-scheme: dark) {
        .text { fill: #f8fafc; }
        .title { fill: #f1f5f9; }
        .subgraph-box { stroke: #475569; }
        .app-node { fill: #0f172a; stroke: #334155; }
        .router-node { fill: #0f172a; stroke: #475569; }
        .vault-node { fill: #0f172a; stroke: #475569; }
        .label-text { fill: #cbd5e1; }
        .label-bg { fill: #0d1117; } /* Match github dark bg */
      }
    </style>
    <marker id="arrow" viewBox="0 0 10 10" refX="9" refY="5" markerWidth="6" markerHeight="6" orient="auto-start-reverse">
      <path d="M 0 0 L 10 5 L 0 10 z" class="arrow-head" />
    </marker>
  </defs>

  <!-- Nodes -->
  <!-- App -->
  <rect x="20" y="180" width="160" height="60" class="app-node" />
  <text x="100" y="215" text-anchor="middle" class="text">Browser / IDE / App</text>
  
  <!-- Router (Diamond) -->
  <polygon points="270,170 320,210 270,250 220,210" class="router-node" />
  <text x="270" y="214" text-anchor="middle" class="text" style="font-weight:700;">JSON-RPC?</text>

  <!-- Sub A -->
  <rect x="400" y="30" width="240" height="230" class="subgraph-box" />
  <text x="415" y="55" class="title">A. Human-to-LLM (Choose One)</text>

  <!-- Changed stateful and stateless nodes to router-node class (standard) -->
  <rect x="420" y="70" width="200" height="36" class="router-node" rx="6" />
  <text x="520" y="93" text-anchor="middle" class="text">1. SYNTHETIC</text>

  <rect x="420" y="120" width="200" height="36" class="router-node" rx="6" />
  <text x="520" y="143" text-anchor="middle" class="text">2. STRUCTURAL_TAG</text>

  <rect x="420" y="170" width="200" height="36" class="router-node" rx="6" />
  <text x="520" y="193" text-anchor="middle" class="text">3. SCRUB</text>

  <rect x="420" y="220" width="200" height="36" class="router-node" rx="6" />
  <text x="520" y="243" text-anchor="middle" class="text">4. STATELESS_CRYPTO</text>

  <!-- Sub B -->
  <rect x="400" y="310" width="240" height="90" class="subgraph-box" />
  <text x="415" y="335" class="title">B. Machine-to-Machine</text>

  <rect x="420" y="350" width="200" height="36" class="router-node" rx="6" />
  <text x="520" y="373" text-anchor="middle" class="text">STATELESS_SYNTHETIC</text>

  <!-- Redis (Cylinder) -->
  <g class="vault-node" transform="translate(710, 80)">
    <path d="M 0 15 L 0 65 A 65 15 0 0 0 130 65 L 130 15 Z" />
    <ellipse cx="65" cy="15" rx="65" ry="15" />
  </g>
  <text x="775" y="125" text-anchor="middle" class="text" style="font-weight:700;">Redis Vault</text>

  <!-- Arrows -->
  <!-- Client to Router -->
  <path d="M 180 210 L 215 210" class="arrow-line" marker-end="url(#arrow)" />
  
  <!-- Router to Sub A -->
  <path d="M 270 170 L 270 140 L 395 140" class="arrow-line" marker-end="url(#arrow)" />
  <rect x="290" y="128" width="60" height="20" class="label-bg" />
  <text x="320" y="142" text-anchor="middle" class="label-text">No: Text</text>

  <!-- Router to Sub B -->
  <path d="M 270 250 L 270 368 L 395 368" class="arrow-line" marker-end="url(#arrow)" />
  <rect x="290" y="356" width="70" height="20" class="label-bg" />
  <text x="325" y="370" text-anchor="middle" class="label-text">Yes: Agent</text>

  <!-- Syn to Redis -->
  <path d="M 620 88 L 705 110" class="arrow-dashed" marker-end="url(#arrow)" />

  <!-- Tag to Redis -->
  <path d="M 620 138 L 705 130" class="arrow-dashed" marker-end="url(#arrow)" />

</svg>
